<svg width="460" height="154" viewBox="0 0 460 154" fill="none" xmlns="http://www.w3.org/2000/svg">
<path d="M203.117 62.2525C202.477 62.2525 201.907 61.6825 201.907 61.0425V54.3325C201.907 53.6925 202.477 53.1225 203.117 53.1225H220.687C221.327 53.1225 221.897 53.6925 221.897 54.3325V71.8325C221.897 72.6225 221.607 73.3325 221.037 73.9025C216.467 78.0425 210.897 80.4025 203.537 80.4025C184.467 80.4025 178.677 65.4025 178.677 54.6825C178.677 44.2525 184.467 29.0425 203.537 29.0425C211.107 29.0425 216.607 31.7525 221.177 36.3325C221.677 36.8325 221.677 37.6225 221.177 38.1225L216.607 43.0525C216.177 43.4825 215.467 43.4825 214.967 43.0525C212.037 40.5525 207.397 38.4825 203.537 38.4825C190.747 38.4825 188.967 50.4825 188.967 54.5525C188.967 58.6225 190.757 71.1925 203.537 71.1925C206.327 71.1925 209.967 70.1925 211.757 68.6225V62.2625H203.117V62.2525Z" fill="white"/>
<path d="M241.547 43.3925C253.757 43.3925 254.757 51.3225 254.757 58.6125V78.5425C254.757 79.1825 254.187 79.7525 253.547 79.7525H249.257C248.547 79.7525 247.897 79.2525 247.687 78.6125L247.327 77.4725C245.117 79.3325 242.037 80.3325 238.827 80.4725C227.687 80.9725 225.617 73.4725 225.617 69.2525C225.617 59.4625 233.547 57.3925 240.907 57.3925C242.407 57.3925 243.767 57.6025 245.047 57.8925C245.047 52.8925 243.407 52.0325 240.257 52.0325C238.757 52.0325 235.187 52.8225 231.827 54.1025C231.187 54.3225 230.467 54.0325 230.187 53.3925L228.047 48.3225C227.757 47.6825 228.047 46.9625 228.617 46.6125C232.617 44.7525 236.907 43.3925 241.547 43.3925ZM245.047 65.3925C243.977 65.1025 242.257 64.6025 240.617 64.6025C237.757 64.6025 234.827 65.3925 234.827 68.7425C234.827 70.8825 236.827 72.0225 239.037 72.0225C241.677 72.0225 244.177 70.5225 245.037 69.2425V65.3925H245.047Z" fill="white"/>
<path d="M267.977 78.5325C267.977 79.1725 267.407 79.7425 266.767 79.7425H259.557C258.917 79.7425 258.347 79.1725 258.347 78.5325V45.2425C258.347 44.6025 258.917 44.0325 259.557 44.0325H263.697C264.407 44.0325 265.057 44.5325 265.267 45.1725L265.767 46.7425C268.267 44.6025 271.697 43.4525 274.767 43.4525C279.977 43.4525 283.127 44.7325 285.267 47.0225C288.197 44.7325 291.697 43.4525 295.267 43.4525C308.907 43.4525 309.407 52.9525 309.407 61.3125V78.5225C309.407 79.1625 308.837 79.7325 308.197 79.7325H300.767C300.127 79.7325 299.557 79.1625 299.557 78.5225V60.3925C299.627 56.6725 299.627 52.0325 294.917 52.0325C292.207 52.0325 289.987 53.6725 288.847 55.1025V78.5325C288.847 79.1725 288.277 79.7425 287.637 79.7425H280.277C279.637 79.7425 279.067 79.1725 279.067 78.5325V60.3925C279.137 56.6725 279.137 52.0325 274.427 52.0325C271.427 52.0325 269.137 53.6025 267.997 55.1725V78.5325H267.977Z" fill="white"/>
<path d="M346.847 61.8925C346.847 69.5325 343.057 80.3925 329.777 80.3925C326.847 80.3925 322.487 79.1025 320.417 77.2525L319.987 78.6125C319.777 79.2525 319.127 79.7525 318.417 79.7525H314.207C313.567 79.7525 312.997 79.1825 312.997 78.5425V30.8925C312.997 30.2525 313.567 29.6825 314.207 29.6825H321.417C322.057 29.6825 322.627 30.2525 322.627 30.8925V44.6125C324.337 43.8225 326.697 43.4025 329.057 43.4025C343.417 43.3925 346.847 53.9625 346.847 61.8925ZM337.267 61.8925C337.267 58.3925 336.267 52.0325 328.477 52.0325C326.837 52.0325 324.047 52.8225 322.617 53.7425V68.8925C323.547 70.1825 326.117 71.6825 329.047 71.6825C336.417 71.6825 337.267 64.7525 337.267 61.8925Z" fill="white"/>
<path d="M360.207 78.5325C360.207 79.1725 359.637 79.7425 358.997 79.7425H351.637C350.997 79.7425 350.427 79.1725 350.427 78.5325V30.8925C350.427 30.2525 350.997 29.6825 351.637 29.6825H358.997C359.637 29.6825 360.207 30.2525 360.207 30.8925V78.5325Z" fill="white"/>
<path d="M395.847 62.3225C395.847 63.0325 395.277 63.5325 394.557 63.5325H373.417C373.987 67.7425 376.627 71.3925 381.277 71.3925C383.917 71.3925 386.707 70.5325 389.207 68.8925C389.777 68.5325 390.497 68.6025 390.917 69.1825L394.207 73.6825C394.637 74.2525 394.497 75.0425 393.997 75.4725C389.997 78.5425 386.137 80.1825 381.277 80.1825C367.637 80.1825 363.417 69.5425 363.417 61.8225C363.417 54.3225 367.627 43.5325 381.277 43.5325C390.777 43.5325 396.067 49.6025 396.067 58.8925C396.057 60.0325 395.987 61.1825 395.847 62.3225ZM386.487 57.8225C386.417 54.8925 385.417 52.2525 381.277 52.1825C377.277 52.1825 374.777 54.5425 373.707 57.8225H386.487Z" fill="white"/>
<path d="M420.067 51.8925C419.857 52.5325 419.207 52.8925 418.497 52.8225C417.567 52.6825 416.567 52.5325 415.497 52.5325C413.207 52.5325 410.997 53.1725 409.637 55.4625V78.5325C409.637 79.1725 409.067 79.7425 408.427 79.7425H401.217C400.577 79.7425 400.007 79.1725 400.007 78.5325V45.2425C400.007 44.6025 400.577 44.0325 401.217 44.0325H405.357C406.067 44.0325 406.717 44.4625 406.997 45.1725L407.427 46.2425C410.287 44.3825 413.287 43.6025 416.567 43.6025C417.777 43.6025 419.707 43.7425 421.277 43.9625C421.917 44.0325 422.347 44.7425 422.137 45.3225L420.067 51.8925Z" fill="white"/>
<path d="M424.997 49.3225C424.427 49.0425 424.207 48.3225 424.497 47.7525C425.927 45.1125 427.427 41.4625 427.927 39.6825C425.217 38.8225 424.067 36.8925 424.067 34.1125C424.067 30.8225 426.497 28.2525 429.857 28.2525C434.567 28.2525 436.217 31.5425 436.217 34.6825C436.217 38.9725 432.357 46.4025 429.647 50.2525C429.217 50.8225 428.507 51.0425 427.857 50.7525L424.997 49.3225Z" fill="white"/>
<path d="M447.707 57.2525C453.067 58.9725 459.917 61.1825 459.917 69.4025C459.917 75.9025 454.207 80.3325 446.487 80.3325C441.487 80.3325 437.487 79.1225 432.987 76.5425C432.347 76.2525 432.127 75.4725 432.487 74.9025L435.197 69.4725C435.557 68.9025 436.267 68.6825 436.837 68.9725C440.127 70.5425 443.407 71.6825 446.127 71.6825C448.197 71.6825 450.057 70.8225 450.057 69.4725C450.057 67.4025 447.347 66.5425 444.127 65.6125C439.057 64.0425 433.057 62.0425 433.057 54.5425C433.057 47.6125 437.987 43.4725 445.197 43.4725C447.057 43.4725 451.837 43.8325 457.987 46.6825C458.557 46.9725 458.847 47.6825 458.557 48.2525L455.917 54.0425C455.627 54.6125 454.917 54.9025 454.277 54.6125C451.567 53.4025 448.207 52.6125 446.347 52.3325C444.057 51.9725 442.417 52.7625 442.417 54.2625C442.427 55.5325 444.777 56.3225 447.707 57.2525Z" fill="white"/>
<path d="M191.687 137.732C191.687 138.372 191.117 138.942 190.477 138.942H182.767C182.127 138.942 181.557 138.372 181.557 137.732V90.1625C181.557 89.5225 182.127 88.9525 182.767 88.9525H190.477C191.117 88.9525 191.687 89.5225 191.687 90.1625V109.662H212.547V90.1625C212.547 89.5225 213.117 88.9525 213.757 88.9525H221.397C222.037 88.9525 222.607 89.5225 222.607 90.1625V137.732C222.607 138.372 222.037 138.942 221.397 138.942H213.757C213.117 138.942 212.547 138.372 212.547 137.732V118.942H191.687V137.732Z" fill="white"/>
<path d="M258.267 121.512C258.267 122.222 257.697 122.722 256.977 122.722H235.837C236.407 126.932 239.057 130.582 243.697 130.582C246.337 130.582 249.127 129.722 251.627 128.082C252.197 127.722 252.917 127.792 253.337 128.372L256.627 132.872C257.057 133.442 256.917 134.232 256.417 134.662C252.417 137.732 248.557 139.372 243.697 139.372C230.057 139.372 225.837 128.732 225.837 121.012C225.837 113.512 230.047 102.722 243.697 102.722C253.197 102.722 258.487 108.792 258.487 118.082C258.477 119.232 258.407 120.372 258.267 121.512ZM248.907 117.012C248.837 114.082 247.837 111.442 243.687 111.372C239.687 111.372 237.187 113.732 236.117 117.012H248.907Z" fill="white"/>
<path d="M271.477 137.732C271.477 138.372 270.907 138.942 270.267 138.942H262.907C262.267 138.942 261.697 138.372 261.697 137.732V90.0825C261.697 89.4425 262.267 88.8725 262.907 88.8725H270.267C270.907 88.8725 271.477 89.4425 271.477 90.0825V137.732Z" fill="white"/>
<path d="M285.407 138.302V152.012C285.407 152.652 284.837 153.222 284.197 153.222H276.987C276.347 153.222 275.777 152.652 275.777 152.012V104.362C275.777 103.722 276.347 103.152 276.987 103.152H281.197C281.907 103.152 282.557 103.652 282.767 104.292L283.197 105.652C285.267 103.792 289.627 102.512 292.557 102.512C305.847 102.512 309.627 113.372 309.627 121.012C309.627 128.732 306.417 138.942 293.057 139.512C290.477 139.512 287.907 139.442 285.407 138.302ZM285.407 114.012V129.152C286.837 130.082 289.627 130.862 291.267 130.862C299.057 130.862 300.057 124.502 300.057 121.002C300.057 118.142 299.197 111.212 291.837 111.212C288.907 111.222 286.337 112.722 285.407 114.012Z" fill="white"/>
<path d="M108.627 90.2725C86.4269 85.8425 72.5069 73.5725 59.5869 48.7325C59.4469 48.4625 59.2969 48.1725 59.1569 47.8925C58.9869 47.9725 58.8169 48.0625 58.6469 48.1425C65.3069 64.4825 73.3569 80.4925 85.5069 95.1225C93.0969 95.0425 99.4369 94.4325 105.667 93.2025C108.187 92.7025 112.817 91.1125 108.627 90.2725Z" fill="url(#paint0_radial_65_3104)"/>
<path d="M0.386928 11.5325C2.64693 10.8925 6.40693 10.3125 10.8769 10.7625C8.49693 14.5725 8.77693 20.5625 10.3269 28.9125C10.4969 29.8425 10.6769 30.8025 10.8469 31.7725C8.83694 21.7125 7.35693 16.6325 0.46693 12.3725C0.18693 12.1925 -0.383072 11.7525 0.386928 11.5325Z" fill="url(#paint1_radial_65_3104)"/>
<path d="M10.8769 10.7625C12.6469 7.93248 15.9469 5.08247 21.4769 3.78247C30.4769 1.67247 42.9069 5.64247 49.5269 23.9625C51.7269 30.0625 53.9469 36.1825 56.3069 42.2725C44.2869 19.8325 24.0769 12.0825 10.8769 10.7625Z" fill="url(#paint2_radial_65_3104)"/>
<path d="M38.9269 85.3925C52.0069 92.5025 70.7169 95.2825 85.5069 95.1225C98.9569 111.312 113.687 124.942 143.187 135.142C147.477 136.622 147.587 139.102 136.857 138.032C131.677 137.512 125.637 136.682 119.827 135.572C104.167 132.592 89.3269 128.342 76.8169 123.262C54.5769 114.222 37.8369 101.392 27.3869 83.4525C23.2469 76.3425 18.6269 64.3325 18.0769 62.5925C20.6469 69.5025 25.9169 78.3225 38.9269 85.3925Z" fill="url(#paint3_radial_65_3104)"/>
<path d="M58.6469 48.1525C53.0669 50.9225 47.5769 54.3325 42.1669 58.6725C45.6269 53.1625 51.1269 47.2925 56.8269 43.6025C56.6569 43.1625 56.4769 42.7225 56.3069 42.2925C44.2769 19.8525 24.0769 12.1025 10.8769 10.7725C8.49693 14.5825 8.77693 20.5725 10.3269 28.9225C10.4969 29.8525 10.6769 30.8125 10.8469 31.7825C12.2069 38.5725 13.7669 47.6225 17.3069 60.1925C24.8069 86.7525 57.6669 95.4325 85.4969 95.1325C73.3569 80.4925 65.3069 64.4925 58.6469 48.1525Z" fill="url(#paint4_radial_65_3104)"/>
<path d="M57.8069 62.2325C52.1669 61.4425 46.9169 60.2025 42.1669 58.6625C80.9469 27.5225 124.037 43.5525 171.797 1.21248C174.527 -1.20752 173.647 3.88248 168.037 12.8025C163.157 20.5525 151.857 34.5225 127.657 47.5425C100.997 50.2825 79.8169 45.1825 53.8369 57.9925C55.1069 59.5325 56.4369 60.9425 57.8069 62.2325Z" fill="url(#paint5_radial_65_3104)"/>
<path d="M127.647 47.5425C136.957 46.5825 144.387 45.5825 154.517 41.9825C156.527 41.2725 156.097 43.4625 152.777 46.7625C149.767 49.7525 145.467 54.2525 134.107 61.1825C123.017 67.9425 105.097 73.6125 88.4169 73.6125C77.0269 73.6125 66.4869 70.4225 57.7969 62.2425C77.8269 65.0525 102.757 62.2625 127.647 47.5425Z" fill="url(#paint6_radial_65_3104)"/>
<path d="M57.8069 62.2325C56.4369 60.9425 55.1069 59.5325 53.8269 57.9925C79.8069 45.1825 100.987 50.2825 127.647 47.5425C102.757 62.2625 77.8269 65.0525 57.8069 62.2325Z" fill="url(#paint7_radial_65_3104)"/>
<defs>
<radialGradient id="paint0_radial_65_3104" cx="0" cy="0" r="1" gradientUnits="userSpaceOnUse" gradientTransform="translate(169.593 28.281) scale(108.748 108.747)">
<stop offset="0.6466" stop-color="#65BC46"/>
<stop offset="0.8052" stop-color="#63BB46"/>
<stop offset="0.8623" stop-color="#5CB947"/>
<stop offset="0.9031" stop-color="#51B647"/>
<stop offset="0.936" stop-color="#40B048"/>
<stop offset="0.9642" stop-color="#2AA94A"/>
<stop offset="0.9887" stop-color="#0FA14B"/>
<stop offset="1" stop-color="#009C4C"/>
</radialGradient>
<radialGradient id="paint1_radial_65_3104" cx="0" cy="0" r="1" gradientUnits="userSpaceOnUse" gradientTransform="translate(58.4943 27.9115) scale(59.6429 59.6429)">
<stop offset="0.857" stop-color="#F58220"/>
<stop offset="0.8693" stop-color="#F68B1F"/>
<stop offset="0.8956" stop-color="#F8981D"/>
<stop offset="0.9297" stop-color="#FAA01B"/>
<stop offset="1" stop-color="#FAA21B"/>
</radialGradient>
<radialGradient id="paint2_radial_65_3104" cx="0" cy="0" r="1" gradientUnits="userSpaceOnUse" gradientTransform="translate(1.58504 81.7507) scale(81.5929 81.5929)">
<stop offset="0.6624" stop-color="#670000"/>
<stop offset="0.7041" stop-color="#6C0102"/>
<stop offset="0.7561" stop-color="#7C0506"/>
<stop offset="0.8136" stop-color="#950B0E"/>
<stop offset="0.8746" stop-color="#B81318"/>
<stop offset="0.8926" stop-color="#C4161C"/>
<stop offset="0.9032" stop-color="#CB1E20"/>
<stop offset="0.9324" stop-color="#DA3029"/>
<stop offset="0.9636" stop-color="#E33B2E"/>
<stop offset="1" stop-color="#E63E30"/>
</radialGradient>
<radialGradient id="paint3_radial_65_3104" cx="0" cy="0" r="1" gradientUnits="userSpaceOnUse" gradientTransform="translate(81.4922 13.6819) scale(139.643 139.643)">
<stop offset="0.595" stop-color="#80C342"/>
<stop offset="0.5964" stop-color="#82C441"/>
<stop offset="0.6171" stop-color="#99CB3B"/>
<stop offset="0.6408" stop-color="#ABD135"/>
<stop offset="0.6693" stop-color="#B8D532"/>
<stop offset="0.707" stop-color="#BFD730"/>
<stop offset="0.7909" stop-color="#C1D82F"/>
<stop offset="0.9065" stop-color="#C5D939"/>
<stop offset="1" stop-color="#CADB44"/>
</radialGradient>
<radialGradient id="paint4_radial_65_3104" cx="0" cy="0" r="1" gradientUnits="userSpaceOnUse" gradientTransform="translate(88.0543 96.5768) scale(112.2 112.2)">
<stop stop-color="#FFF200"/>
<stop offset="0.4281" stop-color="#FFF001"/>
<stop offset="0.6357" stop-color="#FFE803"/>
<stop offset="0.7958" stop-color="#FFDB07"/>
<stop offset="0.9308" stop-color="#FEC90D"/>
<stop offset="1" stop-color="#FEBC11"/>
</radialGradient>
<radialGradient id="paint5_radial_65_3104" cx="0" cy="0" r="1" gradientUnits="userSpaceOnUse" gradientTransform="translate(105.174 187.763) scale(199.663)">
<stop offset="0.7004" stop-color="#7F2A90"/>
<stop offset="0.7144" stop-color="#96218F"/>
<stop offset="0.7349" stop-color="#B1178E"/>
<stop offset="0.7584" stop-color="#C70E8D"/>
<stop offset="0.7859" stop-color="#D8088D"/>
<stop offset="0.8199" stop-color="#E3038C"/>
<stop offset="0.8676" stop-color="#EA018C"/>
<stop offset="1" stop-color="#EC008C"/>
</radialGradient>
<radialGradient id="paint6_radial_65_3104" cx="0" cy="0" r="1" gradientUnits="userSpaceOnUse" gradientTransform="translate(70.2095 -33.7381) scale(111.883 111.883)">
<stop offset="0.869" stop-color="#41A3D5"/>
<stop offset="0.8851" stop-color="#49AFDB"/>
<stop offset="0.913" stop-color="#52BEE1"/>
<stop offset="0.9465" stop-color="#57C6E5"/>
<stop offset="1" stop-color="#59C9E6"/>
</radialGradient>
<radialGradient id="paint7_radial_65_3104" cx="0" cy="0" r="1" gradientUnits="userSpaceOnUse" gradientTransform="translate(54.1275 64.09) scale(76.9169 76.9169)">
<stop stop-color="#007DC5"/>
<stop offset="0.2381" stop-color="#1A80C5"/>
<stop offset="0.4862" stop-color="#2E83C6"/>
<stop offset="0.7387" stop-color="#3984C6"/>
<stop offset="1" stop-color="#3D85C6"/>
</radialGradient>
</defs>
</svg>
