<svg height="512" viewBox="0 0 512 512" width="512" xmlns="http://www.w3.org/2000/svg"><g id="BULINE"><circle cx="256" cy="256" fill="#27273d" r="256"/></g><g id="Icons"><path d="m512 256c0 141.38-114.62 256-256 256s-256-114.62-256-256q0-9.67.71-19.17.57-7.7 1.59-15.26a254.91 254.91 0 0 1 7.85-37.17q2.82-9.71 6.38-19.08 3.63-9.58 8-18.78a256.06 256.06 0 0 1 34.27-53.79c1.2-1.46 2.43-2.9 3.66-4.32q4.59-5.3 9.45-10.33 2.03-2.1 4.09-4.1c.91-.9 1.83-1.8 2.75-2.68s1.83-1.74 2.75-2.61q6.77-6.3 14-12.12h.06a256.06 256.06 0 0 1 43.29-28.18q6.9-3.57 14-6.71a252.15 252.15 0 0 1 31.54-11.48q7.55-2.22 15.28-4 10.19-2.29 20.68-3.76c2.54-.35 5.09-.67 7.65-.94 2.12-.24 4.24-.44 6.38-.61 7.12-.61 14.34-.91 21.62-.91 141.38 0 256 114.62 256 256z" fill="#1b35a5"/><path d="m234.38.91v24.17l-48.89 48.92-18.78 18.75-17.52 17.52-32.45 32.45-21.2 21.19-14 14-58.92 58.92h-21.91q.57-7.7 1.59-15.26a254.91 254.91 0 0 1 7.85-37.17l71.35-71.35 2.79-2.78 11.25-11.27 6.27-6.26 51.06-51.06 31.54-31.54q7.53-2.14 15.26-3.92 10.19-2.29 20.68-3.76c2.54-.35 5.09-.67 7.65-.94 2.12-.24 4.24-.44 6.38-.61z" fill="#fff"/><path d="m234.38 195.46v41.37h-23.52l-58-58-68.57-68.56-17.51-17.52-4.32-4.32q4.59-5.3 9.45-10.33 2.03-2.1 4.09-4.1c.91-.9 1.83-1.8 2.75-2.68s1.83-1.74 2.75-2.61q6.77-6.3 14-12.12l21.26 21.26 32.45 32.45 36.27 36.27 18.78 18.78z" fill="#fff"/><path d="m228 1.52-76.58 76.58h-23.63l11-11 14-14 46.8-46.8q10.19-2.29 20.68-3.76c2.62-.43 5.17-.75 7.73-1.02z" fill="#db1b1b"/><path d="m234.38 203.71v23.63l-57.89-57.88h23.63z" fill="#db1b1b"/><path d="m85.56 78.1h-13.65q2.03-2.1 4.09-4.1c.91-.9 1.83-1.8 2.75-2.68z" fill="#db1b1b"/><g fill="#fff"><path d="m234.38 74v91.35h-81.51v71.51h-71.37v-71.54h-65q3.63-9.58 8-18.78a256.06 256.06 0 0 1 34.3-53.79c1.2-1.46 2.43-2.9 3.66-4.32q4.59-5.3 9.45-10.33 2.03-2.1 4.09-4.1h5.5v-5.32q6.77-6.3 14-12.12h.06a256.06 256.06 0 0 1 43.29-28.18q6.9-3.57 14-6.71v52.33z"/><path d="m228.4 379.86-38.71-25.37 24.69-36.71-43.38 16.02-14.02-44.05-14.02 44.05-43.38-16.02 24.7 36.71-38.72 25.37 46.06 3.33-7.34 48.06 32.7-36.04 32.71 36.04-7.35-48.06z"/><path d="m404.05 101.73-18.47-12.1 11.78-17.51-20.69 7.64-6.69-21.01-6.69 21.01-20.69-7.64 11.78 17.51-18.47 12.1 21.97 1.6-3.5 22.92 15.6-17.19 15.6 17.19-3.5-22.92z"/><path d="m324.14 233.29-18.47-12.1 11.78-17.51-20.7 7.64-6.68-21.02-6.69 21.02-20.69-7.64 11.78 17.51-18.47 12.1 21.97 1.59-3.5 22.92 15.6-17.19 15.6 17.19-3.5-22.92z"/><path d="m482.14 184.4-18.47-12.1 11.78-17.51-20.7 7.64-6.68-21.01-6.69 21.01-20.69-7.64 11.78 17.51-18.47 12.1 21.97 1.59-3.5 22.93 15.6-17.2 15.6 17.2-3.5-22.93z"/><path d="m404.05 429.23-18.47-12.1 11.78-17.51-20.69 7.64-6.69-21.01-6.69 21.01-20.69-7.64 11.78 17.51-18.47 12.1 21.97 1.59-3.5 22.93 15.6-17.19 15.6 17.19-3.5-22.93z"/><path d="m422.34 276.03 6.07 18.69h19.66l-15.9 11.56 6.07 18.69-15.9-11.55-15.9 11.55 6.07-18.69-15.9-11.56h19.65z"/></g><path d="m281 510.79q-12.34 1.21-25 1.21c-141.38 0-256-114.62-256-256q0-9.67.71-19.17.57-7.7 1.59-15.26a254.91 254.91 0 0 1 7.85-37.17q2.82-9.71 6.38-19.08 3.63-9.58 8-18.78a256.06 256.06 0 0 1 34.27-53.79c1.2-1.46 2.43-2.9 3.66-4.32q4.59-5.3 9.45-10.33 2.03-2.1 4.09-4.1c.91-.9 1.83-1.8 2.75-2.68s1.83-1.74 2.75-2.61q6.77-6.3 14-12.12h.06a256.06 256.06 0 0 1 43.29-28.18q6.9-3.57 14-6.71a252.15 252.15 0 0 1 31.54-11.48q7.55-2.22 15.28-4 10.19-2.29 20.68-3.76c2.54-.35 5.09-.67 7.65-.94 2.12-.24 4.24-.44 6.38-.61 7.12-.61 14.34-.91 21.62-.91q12.64 0 25 1.21a254.21 254.21 0 0 0 -46.61 8.94q-11.68 3.39-22.86 7.85a255.28 255.28 0 0 0 -50.82 27.19l-7.84 7.81v-2.19q-7.22 5.4-14 11.29a255.87 255.87 0 0 0 -64.37 84.44q-4.36 9.19-8 18.78c-.52 1.37-1 2.75-1.52 4.14q-3.39 9.38-6 19.09-2.12 7.75-3.75 15.7a257.18 257.18 0 0 0 -5.23 51.75c0 133 101.33 242.24 231 254.79z" fill="#1a358e"/><path d="m234.38.91v9.24q-11.67 3.39-22.85 7.85a255.28 255.28 0 0 0 -50.82 27.19l-7.84 7.81v-2.19q-7.22 5.4-14 11.29a255.87 255.87 0 0 0 -64.37 84.44q-4.36 9.19-8 18.78c-.52 1.37-1 2.75-1.52 4.14q-3.39 9.38-6 19.09-2.12 7.75-3.75 15.7l-32.61 32.58h-21.91q.57-7.7 1.59-15.26a254.91 254.91 0 0 1 7.85-37.17l19.08-19.08 18.77-18.78 33.5-33.49 2.79-2.78 11.25-11.27 6.27-6.26 14.93-14.93 22.09-22.09 14-14 31.54-31.54q7.57-2.18 15.3-3.96 10.19-2.29 20.68-3.76c2.54-.35 5.09-.67 7.65-.94 2.12-.24 4.24-.44 6.38-.61z" fill="#dddbdb"/><path d="m119.51 80.59a257.64 257.64 0 0 0 -28.51 36.41l-6.69-6.69-17.53-17.56-4.32-4.32q4.59-5.3 9.45-10.33 2.03-2.1 4.09-4.1c.91-.9 1.83-1.8 2.75-2.68s1.83-1.74 2.75-2.61q6.77-6.3 14-12.12z" fill="#fff"/><path d="m228 1.52-16.47 16.48a255.28 255.28 0 0 0 -50.82 27.19l39-39q10.19-2.29 20.68-3.76c2.5-.32 5.05-.64 7.61-.91z" fill="#bf1b1b"/><path d="m85.56 78.1h-13.65q2.03-2.1 4.09-4.1c.91-.9 1.83-1.8 2.75-2.68z" fill="#db1b1b"/><path d="m152.87 21.63v29.18q-7.22 5.4-14 11.29a255.87 255.87 0 0 0 -64.37 84.44q-4.36 9.19-8 18.78h-50q3.63-9.58 8-18.78a256.06 256.06 0 0 1 34.3-53.79c1.2-1.46 2.43-2.9 3.66-4.32q4.59-5.3 9.45-10.33 2.03-2.1 4.09-4.1h5.5v-5.32q6.77-6.3 14-12.12h.06a256.06 256.06 0 0 1 43.29-28.18q6.88-3.61 14.02-6.75z" fill="#dddbdb"/><path d="m234.38 92.75v53.79h-95.55v90.29h-43.29v-90.29h-71a256.06 256.06 0 0 1 34.26-53.79h36.74v-36.23a256.06 256.06 0 0 1 43.29-28.18v64.41z" fill="#db1b1b"/><path d="m138.83 28.34v33.76a255.87 255.87 0 0 0 -64.33 84.44h-50a256.06 256.06 0 0 1 34.3-53.79h36.74v-36.23a256.06 256.06 0 0 1 43.29-28.18z" fill="#bf1b1b"/><path d="m78 169.46-67.33 67.37h-9.96q.57-7.7 1.59-15.26l52.12-52.11z" fill="#db1b1b"/><path d="m65 169.46q-3.39 9.38-6 19.09l-48.33 48.28h-9.96q.57-7.7 1.59-15.26l52.12-52.11z" fill="#bf1b1b"/><circle cx="475.25" cy="276.08" fill="#2548b7" r="16.28"/><circle cx="475.25" cy="242.17" fill="#2548b7" r="11.53"/></g></svg>